PathFileType	4	(X/Y/Z)	Captury_Subj1_walk03.trc
DataRate	CameraRate	NumFrames	NumMarkers	Units	OrigDataRate	OrigDataStartFrame	OrigNumFrames
100.0	100.0	5	47	mm	59.99879837036133	126	121
Frame#	Time		LeftUpLeg_		RightUpLeg_		LeftLeg_		RightLeg_		LeftFoot_		RightFoot_		LeftToeBase_		RightToeBase_		Knee_Lateral_r		Knee_Lateral_l		Ankle_Lateral_r		Ankle_Lateral_l		LeftArm_		LeftForeArm_		LeftHand_		LeftHandEE		RightArm_		RightForeArm_		RightHand_		RightHandEE		Spine_		Spine1_		Spine2_		Spine3_		Spine4_		Spine5_		Spine_x		Spine_y		Spine_z		RASI		LASI		RIPS		LIPS		RTHI		LTHI		RTIB		LTIB		RTOE		LTOE		RHEE		LHEE		RHipAngles		LHipAngles		RKneeAngles		LKneeAngles		RAnkleAngles		LAnkleAngles
			X1	Y1	Z1	X2	Y2	Z2	X3	Y3	Z3	X4	Y4	Z4	X5	Y5	Z5	X6	Y6	Z6	X7	Y7	Z7	X8	Y8	Z8	X9	Y9	Z9	X10	Y10	Z10	X11	Y11	Z11	X12	Y12	Z12	X13	Y13	Z13	X14	Y14	Z14	X15	Y15	Z15	X16	Y16	Z16	X17	Y17	Z17	X18	Y18	Z18	X19	Y19	Z19	X20	Y20	Z20	X21	Y21	Z21	X22	Y22	Z22	X23	Y23	Z23	X24	Y24	Z24	X25	Y25	Z25	X26	Y26	Z26	X27	Y27	Z27	X28	Y28	Z28	X29	Y29	Z29	X30	Y30	Z30	X31	Y31	Z31	X32	Y32	Z32	X33	Y33	Z33	X34	Y34	Z34	X35	Y35	Z35	X36	Y36	Z36	X37	Y37	Z37	X38	Y38	Z38	X39	Y39	Z39	X40	Y40	Z40	X41	Y41	Z41	X42	Y42	Z42	X43	Y43	Z43	X44	Y44	Z44	X45	Y45	Z45	X46	Y46	Z46	X47	Y47	Z47

126	1.25000	-379.75717	827.36224	98.71659	-365.91620	831.77045	-66.59811	-502.60614	449.99234	61.40515	-394.12683	434.54855	-84.23237	-470.23376	83.93170	43.77849	-97.89203	217.53090	-61.70981	-582.38727	24.60987	44.65756	-81.43333	92.01689	-70.28973	-388.54352	433.82794	-129.63712	-507.31381	444.59412	106.59343	-87.68415	234.47827	-106.84142	-456.88318	80.99279	91.12193	-364.53052	1314.20508	143.25903	-303.30939	1052.50061	207.55147	-276.48999	826.78046	260.80417	-251.96594	745.63080	252.27713	-378.12173	1307.74438	-120.09396	-405.40665	1042.88757	-194.10202	-558.05396	866.38794	-201.27312	-608.90674	802.91638	-175.88092	-348.61090	919.15607	20.47645	-359.80801	1016.12433	20.38320	-345.44302	1085.75159	19.58061	-309.58826	1168.89429	16.11201	-311.24503	1300.98889	8.09711	4185915979477856304811803089567744.00000	0.00000	4185920931238013446332902686064640.00000	-344.72867	920.39252	-25.89253	-345.54990	965.57892	21.97060	-302.32654	915.98218	24.26698	-449.88321	902.62891	-128.62422	-473.17664	895.21033	149.58965	-319.57111	890.38721	-15.24091	-325.78268	888.40887	58.94946	-368.29980	644.76697	-138.96976	-441.13599	642.30481	145.62112	-265.32416	325.53696	-111.60715	-505.44638	226.65869	82.33231	-88.13956	20.96627	-75.14051	-653.88367	25.50210	42.61876	-25.09377	247.40816	-59.69670	-416.82819	26.35072	49.12305	0.52222	-2.28764	2.32502	-13.54689	-5.35899	0.46773	-52.38138	-0.39998	0.15272	-17.39051	0.40702	0.01104	27.47067	3.03019	8.38024	6.91843	5.45543	9.60219
127	1.26000	-393.17415	829.30415	98.70750	-382.23287	834.50747	-66.78305	-506.79958	449.03748	62.43692	-421.53968	438.38795	-85.56112	-469.81943	83.50351	43.44024	-128.09092	217.85372	-61.15364	-582.13286	24.50148	44.97436	-116.91084	91.90414	-70.67654	-415.66642	437.60383	-130.92756	-510.84700	443.49990	107.66891	-116.84595	234.51100	-106.13780	-455.82516	80.34619	90.57974	-378.73785	1316.11479	143.87276	-322.18800	1053.69512	209.39312	-301.54113	827.34424	262.47825	-278.55482	745.82339	253.34182	-391.43629	1309.67542	-119.33724	-414.76791	1044.27625	-192.67740	-561.85087	863.28163	-201.42444	-610.46116	797.94280	-176.49529	-362.76473	921.29602	20.41261	-373.50787	1018.35444	20.96296	-358.93958	1087.98350	20.21609	-323.01163	1171.13140	16.57074	-324.73162	1303.27969	8.75302	4185915979477856304811803089567744.00000	0.00000	4185920931238013446332902686064640.00000	-359.69582	922.75549	-26.00570	-359.34547	967.68632	22.09283	-316.45009	917.77738	23.36318	-466.76467	906.28494	-126.93181	-485.17817	897.52815	151.57802	-334.57237	892.51826	-15.95983	-339.48264	890.18309	58.30946	-389.40456	647.84720	-139.61612	-449.27843	642.76451	146.12829	-293.88660	327.84515	-112.11539	-506.44121	225.64919	82.79493	-126.61358	21.29659	-76.21667	-653.63691	25.64748	43.44696	-54.15850	244.55985	-58.17264	-416.54498	25.75672	48.25875	-0.62695	-2.42699	3.76219	-11.66274	-5.31643	0.14855	-53.32741	-0.39766	0.13700	-16.68841	0.36805	-0.04512	25.66486	3.30700	8.28107	6.02590	5.09526	9.73395
128	1.27000	-406.05997	831.07677	98.70286	-398.45436	837.07096	-66.94144	-511.04751	448.18435	63.55111	-448.85707	442.24139	-87.04296	-469.42176	83.22519	43.06325	-158.81215	217.50158	-60.60102	-581.84854	24.46583	45.37783	-153.26478	91.26702	-71.25301	-442.60200	441.38853	-132.35612	-514.30835	442.50396	108.82685	-146.43164	233.85222	-105.39817	-454.65673	79.87450	89.95156	-392.90807	1317.91680	144.44089	-341.05673	1054.83232	211.20822	-326.63292	827.93369	264.08373	-305.53375	745.96804	254.45509	-404.77176	1311.56929	-118.60148	-424.13218	1045.62971	-191.15741	-565.41428	860.14041	-201.62325	-611.71263	792.90022	-177.33782	-376.71852	923.29874	20.27776	-387.09276	1020.45669	21.49046	-372.37561	1090.12114	20.76738	-336.43104	1173.31829	16.88017	-338.28444	1305.54277	9.28803	4185915979477856304811803089567744.00000	0.00000	4185920931238013446332902686064640.00000	-374.58522	924.98005	-26.18367	-372.99838	969.66050	22.12409	-330.37569	919.50223	22.26801	-483.77349	909.63721	-124.99093	-496.57330	899.54937	153.77765	-349.43826	894.54885	-16.80503	-352.85154	891.85875	57.53326	-410.28587	650.83383	-140.29297	-456.98622	643.17321	146.66783	-322.60872	329.90089	-112.72452	-507.37292	224.77033	83.32075	-166.12763	21.23277	-77.59776	-653.35890	25.81815	44.45511	-83.77870	240.78007	-56.56071	-416.23762	25.34782	47.26670	-1.86128	-2.48503	5.46369	-9.93884	-5.27106	-0.15212	-54.14164	-0.33769	0.11561	-16.08514	0.34521	-0.09949	23.82510	3.58491	8.20828	5.16508	4.65151	9.83972
129	1.28000	-417.88345	832.51082	98.70712	-414.48546	839.28738	-67.04673	-515.40439	447.53467	64.83012	-475.98354	446.12296	-88.83097	-469.05740	83.24661	42.60877	-190.57805	215.79952	-60.05549	-581.50437	24.57566	45.95468	-191.37156	89.58119	-72.20878	-469.16293	445.19082	-134.06089	-517.62604	441.70460	110.14973	-176.86511	231.81040	-104.58650	-453.26747	79.75262	89.15142	-407.00406	1319.50337	144.91786	-359.90568	1055.85493	212.97018	-351.80604	828.57449	265.55204	-333.29279	746.01682	255.66555	-418.14908	1313.38884	-117.90764	-433.50244	1046.91277	-189.44666	-568.51071	856.92936	-201.91704	-612.35823	787.71965	-178.63669	-390.27223	925.02700	20.00091	-400.44768	1022.30320	21.91341	-385.69058	1092.07026	21.15029	-349.84252	1175.40474	16.89098	-351.96971	1307.75044	9.58126	4185915979477856304811803089567744.00000	0.00000	4185920931238013446332902686064640.00000	-389.31913	926.92778	-26.49124	-386.36600	971.36825	21.97341	-343.90541	921.08639	20.79012	-501.03700	912.38196	-122.55315	-506.75562	900.97737	156.39980	-364.03339	896.37852	-17.90278	-365.55837	893.33729	56.48467	-430.72029	653.63322	-141.03082	-463.82472	643.47987	147.27213	-351.65022	331.45174	-113.53542	-508.17841	224.15273	83.97297	-207.72174	20.38066	-79.58872	-653.01836	26.03940	45.82316	-114.50983	235.13735	-54.77303	-415.88198	25.30911	46.01915	-3.26594	-2.38044	7.69389	-8.53543	-5.22008	-0.41576	-54.69227	-0.16241	0.08288	-15.67954	0.35461	-0.15026	21.91747	3.86503	8.18823	4.36771	4.04062	9.89350
130	1.29000	-430.16797	834.01715	98.71158	-430.36167	841.31654	-67.05735	-519.18442	446.95201	65.67766	-502.70887	450.12069	-90.35264	-468.69246	83.28682	42.29833	-223.48497	212.67690	-59.72455	-581.23467	24.81989	46.05018	-231.06717	86.90281	-73.40008	-495.42645	449.07891	-135.50835	-520.55042	441.00770	111.01736	-208.47818	228.20764	-104.00258	-452.06001	79.71589	88.54180	-421.27435	1321.06001	145.33625	-378.69304	1057.00356	214.74481	-377.23191	829.47222	266.71478	-361.29611	746.38938	256.80922	-431.28069	1315.06787	-117.35721	-443.02909	1048.11101	-187.77034	-571.27107	853.69875	-202.38630	-612.31683	782.50962	-180.07905	-404.02319	926.71097	19.71319	-413.97436	1024.06357	22.16553	-399.14191	1093.88125	21.38337	-363.31280	1177.28127	16.91045	-365.54673	1309.71021	9.96393	4185915979477856304811803089567744.00000	0.00000	4185920931238013446332902686064640.00000	-404.07752	928.75840	-26.78320	-399.94776	973.03508	21.74612	-357.66061	922.64279	19.47981	-517.90161	914.82236	-120.43563	-517.57562	902.53787	158.54273	-378.69436	898.11353	-18.84370	-378.60744	894.83768	55.55052	-451.03370	656.34635	-141.61303	-470.90079	643.91320	147.65349	-381.10060	332.44604	-114.28771	-508.86820	223.66008	84.45860	-251.10378	18.83211	-81.78516	-652.74623	26.46058	46.28565	-146.57279	227.72759	-53.39600	-415.60908	25.23909	45.27127	-4.68774	-2.15609	9.57686	-7.02535	-5.20471	-0.69827	-54.87054	-0.03690	0.04437	-15.05230	0.41598	-0.18405	20.13783	4.12204	8.19864	3.62963	3.29961	9.90576
